<svg width="26" height="36" viewBox="0 0 26 36" fill="none" xmlns="http://www.w3.org/2000/svg">
<path d="M13 0.5C6.2275 0.5 0.75 5.9775 0.75 12.75C0.75 21.9375 13 35.5 13 35.5C13 35.5 25.25 21.9375 25.25 12.75C25.25 5.9775 19.7725 0.5 13 0.5ZM4.25 12.75C4.25 7.92 8.17 4 13 4C17.83 4 21.75 7.92 21.75 12.75C21.75 17.79 16.71 25.3325 13 30.04C9.36 25.3675 4.25 17.7375 4.25 12.75Z" fill="#F97316"/>
<path d="M13 17.125C15.4162 17.125 17.375 15.1662 17.375 12.75C17.375 10.3338 15.4162 8.375 13 8.375C10.5838 8.375 8.625 10.3338 8.625 12.75C8.625 15.1662 10.5838 17.125 13 17.125Z" fill="#F97316"/>
</svg>
