<svg width="36" height="32" viewBox="0 0 36 32" fill="none" xmlns="http://www.w3.org/2000/svg">
<path d="M34.082 16.385C34.082 6.7775 26.627 0.25 18.332 0.25C10.1245 0.25 2.58203 6.6375 2.58203 16.49C1.53203 17.085 0.832031 18.205 0.832031 19.5V23C0.832031 24.925 2.40703 26.5 4.33203 26.5H6.08203V15.825C6.08203 9.0525 11.5595 3.575 18.332 3.575C25.1045 3.575 30.582 9.0525 30.582 15.825V28.25H16.582V31.75H30.582C32.507 31.75 34.082 30.175 34.082 28.25V26.115C35.1145 25.5725 35.832 24.505 35.832 23.245V19.22C35.832 17.995 35.1145 16.9275 34.082 16.385Z" fill="#F97316"/>
<path d="M13.082 19.5C14.0485 19.5 14.832 18.7165 14.832 17.75C14.832 16.7835 14.0485 16 13.082 16C12.1155 16 11.332 16.7835 11.332 17.75C11.332 18.7165 12.1155 19.5 13.082 19.5Z" fill="#F97316"/>
<path d="M23.582 19.5C24.5485 19.5 25.332 18.7165 25.332 17.75C25.332 16.7835 24.5485 16 23.582 16C22.6155 16 21.832 16.7835 21.832 17.75C21.832 18.7165 22.6155 19.5 23.582 19.5Z" fill="#F97316"/>
<path d="M28.832 14.3025C27.992 9.315 23.652 5.5 18.4195 5.5C13.117 5.5 7.41203 9.8925 7.86703 16.7875C12.1895 15.02 15.4445 11.17 16.372 6.48C18.6645 11.0825 23.372 14.25 28.832 14.3025Z" fill="#F97316"/>
</svg>
