<svg width="43" height="42" viewBox="0 0 43 42" fill="none" xmlns="http://www.w3.org/2000/svg">
<path d="M12.113 8.75C12.218 10.3075 12.4805 11.83 12.9005 13.2825L10.8005 15.3825C10.083 13.2825 9.62797 11.06 9.47047 8.75H12.113ZM29.368 29.785C30.8555 30.205 32.378 30.4675 33.918 30.5725V33.18C31.608 33.0225 29.3855 32.5675 27.268 31.8675L29.368 29.785ZM13.793 5.25H7.66797C6.70547 5.25 5.91797 6.0375 5.91797 7C5.91797 23.4325 19.2355 36.75 35.668 36.75C36.6305 36.75 37.418 35.9625 37.418 35V28.8925C37.418 27.93 36.6305 27.1425 35.668 27.1425C33.498 27.1425 31.3805 26.7925 29.4205 26.145C29.2455 26.075 29.053 26.0575 28.878 26.0575C28.423 26.0575 27.9855 26.2325 27.6355 26.565L23.7855 30.415C18.833 27.8775 14.773 23.835 12.253 18.8825L16.103 15.0325C16.593 14.5425 16.733 13.86 16.5405 13.2475C15.893 11.2875 15.543 9.1875 15.543 7C15.543 6.0375 14.7555 5.25 13.793 5.25Z" fill="#F97316"/>
</svg>
