<svg width="42" height="42" viewBox="0 0 42 42" fill="none" xmlns="http://www.w3.org/2000/svg">
<path d="M25.375 22.0325L26.95 28.8225L21 25.235L15.05 28.8225L16.625 22.05L11.375 17.5175L18.305 16.9225L21 10.535L23.695 16.905L30.625 17.5L25.375 22.0325ZM21 5.5825L33.25 11.025V19.25C33.25 27.16 28.035 34.4575 21 36.6275C13.965 34.4575 8.75 27.16 8.75 19.25V11.025L21 5.5825ZM21 1.75L5.25 8.75V19.25C5.25 28.9625 11.97 38.045 21 40.25C30.03 38.045 36.75 28.9625 36.75 19.25V8.75L21 1.75Z" fill="#F97316"/>
</svg>
