<svg width="42" height="42" viewBox="0 0 42 42" fill="none" xmlns="http://www.w3.org/2000/svg">
<path d="M35 14H29.75V7H5.25C3.325 7 1.75 8.575 1.75 10.5V29.75H5.25C5.25 32.655 7.595 35 10.5 35C13.405 35 15.75 32.655 15.75 29.75H26.25C26.25 32.655 28.595 35 31.5 35C34.405 35 36.75 32.655 36.75 29.75H40.25V21L35 14ZM34.125 16.625L37.555 21H29.75V16.625H34.125ZM10.5 31.5C9.5375 31.5 8.75 30.7125 8.75 29.75C8.75 28.7875 9.5375 28 10.5 28C11.4625 28 12.25 28.7875 12.25 29.75C12.25 30.7125 11.4625 31.5 10.5 31.5ZM14.385 26.25C13.4225 25.1825 12.0575 24.5 10.5 24.5C8.9425 24.5 7.5775 25.1825 6.615 26.25H5.25V10.5H26.25V26.25H14.385ZM31.5 31.5C30.5375 31.5 29.75 30.7125 29.75 29.75C29.75 28.7875 30.5375 28 31.5 28C32.4625 28 33.25 28.7875 33.25 29.75C33.25 30.7125 32.4625 31.5 31.5 31.5Z" fill="#F97316"/>
</svg>
