<svg width="18" height="22" viewBox="0 0 18 22" fill="none" xmlns="http://www.w3.org/2000/svg">
<path d="M13.334 5.04232L12.8573 5.63815C12.4023 6.20148 11.7957 6.45065 11.189 6.45065C10.084 6.45065 9.00065 5.60565 9.00065 4.28398V0.708984C9.00065 0.708984 0.333984 5.04232 0.333984 12.6257C0.333984 17.414 4.21232 21.2923 9.00065 21.2923C13.789 21.2923 17.6673 17.414 17.6673 12.6257C17.6673 9.41898 15.9232 6.53732 13.334 5.04232ZM9.00065 19.1257C7.80898 19.1257 6.83398 18.1831 6.83398 17.024C6.83398 16.4715 7.05065 15.9515 7.46232 15.5506L9.00065 14.034L10.5498 15.5506C10.9507 15.9515 11.1673 16.4715 11.1673 17.024C11.1673 18.1831 10.1923 19.1257 9.00065 19.1257ZM13.2907 17.5007C13.334 17.1106 13.529 15.4531 12.0665 14.0123L9.00065 11.0007L5.93482 14.0123C4.46148 15.464 4.66732 17.1323 4.71065 17.5007C3.35648 16.309 2.50065 14.5648 2.50065 12.6257C2.50065 9.20232 4.80815 6.50482 6.86648 4.77148C7.11565 6.92732 8.95732 8.61732 11.189 8.61732C12.034 8.61732 12.8573 8.36815 13.5507 7.90232C14.7857 9.13732 15.5007 10.8382 15.5007 12.6257C15.5007 14.5648 14.6448 16.309 13.2907 17.5007Z" fill="#16A34A"/>
</svg>
