<svg width="28" height="38" viewBox="0 0 28 38" fill="none" xmlns="http://www.w3.org/2000/svg">
<path d="M9.94 21.0825L14 18.0025L18.0425 21.0825L16.5025 16.095L20.5625 12.875H15.5925L14 7.9575L12.4075 12.875H7.4375L11.48 16.095L9.94 21.0825ZM28 14.625C28 6.89 21.735 0.625 14 0.625C6.265 0.625 0 6.89 0 14.625C0 18.1775 1.33 21.3975 3.5 23.865V37.375L14 33.875L24.5 37.375V23.865C26.67 21.3975 28 18.1775 28 14.625ZM14 4.125C19.7925 4.125 24.5 8.8325 24.5 14.625C24.5 20.4175 19.7925 25.125 14 25.125C8.2075 25.125 3.5 20.4175 3.5 14.625C3.5 8.8325 8.2075 4.125 14 4.125ZM14 30.375L7 32.16V26.735C9.065 27.925 11.445 28.625 14 28.625C16.555 28.625 18.935 27.925 21 26.735V32.16L14 30.375Z" fill="#F97316"/>
</svg>
