<svg width="33" height="32" viewBox="0 0 33 32" fill="none" xmlns="http://www.w3.org/2000/svg">
<path d="M7.11297 3.75C7.21797 5.3075 7.48047 6.83 7.90047 8.2825L5.80047 10.3825C5.08297 8.2825 4.62797 6.06 4.47047 3.75H7.11297ZM24.368 24.785C25.8555 25.205 27.378 25.4675 28.918 25.5725V28.18C26.608 28.0225 24.3855 27.5675 22.268 26.8675L24.368 24.785ZM8.79297 0.25H2.66797C1.70547 0.25 0.917969 1.0375 0.917969 2C0.917969 18.4325 14.2355 31.75 30.668 31.75C31.6305 31.75 32.418 30.9625 32.418 30V23.8925C32.418 22.93 31.6305 22.1425 30.668 22.1425C28.498 22.1425 26.3805 21.7925 24.4205 21.145C24.2455 21.075 24.053 21.0575 23.878 21.0575C23.423 21.0575 22.9855 21.2325 22.6355 21.565L18.7855 25.415C13.833 22.8775 9.77297 18.835 7.25297 13.8825L11.103 10.0325C11.593 9.5425 11.733 8.86 11.5405 8.2475C10.893 6.2875 10.543 4.1875 10.543 2C10.543 1.0375 9.75547 0.25 8.79297 0.25Z" fill="#F97316"/>
</svg>
